<svg
  width="250"
  height="250"
  viewBox="0 0 24 24"
  xmlns="http://www.w3.org/2000/svg"
  fill="none"
  stroke="currentColor"
  stroke-width="10"
  stroke-linecap="round"
  stroke-linejoin="round">

  <g transform="scale(0.080808)">

    <!-- ALL your original content unchanged -->
    <!-- Pins -->
    <circle cx="148.5" cy="113.235" r="8" fill="currentColor" stroke="none" />
    <circle cx="161.622" cy="90.396" r="8" fill="currentColor" stroke="none" />
    <circle cx="135.378" cy="90.396" r="8" fill="currentColor" stroke="none" />
    <circle cx="174.743" cy="67.558" r="8" fill="currentColor" stroke="none" />
    <circle cx="148.5" cy="67.558" r="8" fill="currentColor" stroke="none" />
    <circle cx="122.257" cy="67.558" r="8" fill="currentColor" stroke="none" />
    <circle cx="187.865" cy="44.720" r="8" fill="currentColor" stroke="none" />
    <circle cx="161.622" cy="44.720" r="8" fill="currentColor" stroke="none" />
    <circle cx="135.378" cy="44.720" r="8" fill="currentColor" stroke="none" />
    <circle cx="109.135" cy="44.720" r="8" fill="currentColor" stroke="none" />

    <!-- Bowling ball -->
    <circle
      cx="148.5"
      cy="239"
      r="23"
      fill="none"
      stroke="currentColor"
      stroke-width="10" />

    <!-- Lane outline -->
    <path
      d="M99.385,0
         H197.616
         A56 56 0 0 1 223.616,26
         V271.001
         A56 56 0 0 1 197.616,297.001
         H99.385
         A56 56 0 0 1 73.385,271.001
         V26
         A56 56 0 0 1 99.385,0
         Z

         M100.385,9
         H196.616
         A46 46 0 0 1 214.616,27
         V270.001
         A46 46 0 0 1 196.616,288.001
         H100.385
         A46 46 0 0 1 82.385,270.001
         V27
         A46 46 0 0 1 100.385,9
         Z"
      fill="none"
      stroke="currentColor"
      stroke-width="10" />
  </g>
</svg>